<svg class="svg-logo" width="50" height="50" version="1.1" viewBox="0 0 500 500" xmlns="http://www.w3.org/2000/svg"><g transform="translate(4.946 -1.8316)"><path d="m379.8 327.6s-114.65 51.373-97.963 29.733c0 0 168.43-190.47 127.5-172.48l-82.053 39.185c-24.508 5.7359 188.64-222.46 146.05-201.62 0 0-191.33 147.85-201.24 145.76l28.954-86.685c9.9554-34.475-147.68 129.14-162.64 132.42 0 0 38.85-100.71 9.9057-80.61 0 0-229.22 183.19-99.138 313.28 130.08 130.08 389.81-135.13 330.63-118.97z" fill="#ffb400" stroke="#241172" stroke-linecap="round" stroke-linejoin="round" stroke-width="1.969"/><path d="m272.1 168.17 27.962-84.721c16.426-39.369-146.69 126.85-161 130.08 0 0 38.442-104.42 7.4164-78.348 0 0-226.31 180.72-96.474 310.56 0 0 479.56-442.13 423.33-423.33 0 0-198.88 156.19-201.23 145.76z" fill="#f39100" stroke-width=".90262"/><path d="m87.736 263.54c-15.987 15.987-40.38 34.724-40.38 66.674 0 31.951 9.1175 48.304 12.673 65.186 9.6679 45.906 74.376 48.708 93.343 45.413 18.256-3.1726 54.295-6.5358 70.59-22.83 16.294-16.294 25.893-26.612 32.457-60.284l8.5434-43.828c2.1176-10.864-21.314-64.389-50.708-72.058-29.393-7.6674-85.944-18.85-126.52 21.726z" fill="#426ffd" stroke-width=".90438"/><g transform="matrix(-.90438 0 0 .90438 483.18 12.562)" fill="#3939a4"><path d="m271.26 271.26c5.4429-6.5315 14.546-14.754 26.096-17.767 32.501-8.479 95.031-20.843 139.9 24.023 17.677 17.677 44.649 38.248 44.649 73.576s-10.082 53.559-14.014 72.226c-2.534 12.033-7.856 21.854-16.126 28.443z" fill="#3939a4"/></g></g></svg>
