<svg width="50" height="50" class="svg-logo" version="1.1" viewBox="0 0 500 500" xmlns="http://www.w3.org/2000/svg"><g><path d="m390 325-99.507 30.202 129.51-175.2-83.346 39.802 148.35-204.8-204.8 148.35 29.803-88.345-165.2 134.51 26.202-69.506s-248.97 173.7-116.84 305.84c132.13 132.13 335.84-120.84 335.84-120.84z" fill="#ffb400" stroke="#241172" stroke-linecap="round" stroke-linejoin="round" stroke-width="2"/><path d="m280.6 163.06 28.403-86.056-163.54 132.13 23.539-66.67s-245.88 170.66-114 302.54l430-430z" fill="#f39100" stroke-width=".91684"/><path d="m83.328 269.93c-16.239 16.239-41.016 35.271-41.016 67.725s9.2612 49.065 12.873 66.213c9.8202 46.629 75.548 49.476 94.814 46.129 18.544-3.2226 55.151-6.6388 71.702-23.19 16.551-16.551 26.301-27.031 32.968-61.234l8.678-44.519c2.151-11.035-21.65-65.404-51.507-73.193-29.856-7.7882-87.298-19.147-128.51 22.068z" fill="#426ffd" stroke-width=".91863"/><g transform="matrix(-.91863 0 0 .91863 485 15)" fill="#3939a4"><path d="m271.26 271.26c5.4429-6.5315 14.546-14.754 26.096-17.767 32.501-8.479 95.031-20.843 139.9 24.023 17.677 17.677 44.649 38.248 44.649 73.576s-10.082 53.559-14.014 72.226c-2.534 12.033-7.856 21.854-16.126 28.443z" fill="#3939a4"/></g></g></svg>
